<?xml version="1.0" encoding="UTF-8" standalone="no"?>
<!-- Created with Inkscape (http://www.inkscape.org/) -->

<svg
   xmlns:dc="http://purl.org/dc/elements/1.1/"
   xmlns:cc="http://creativecommons.org/ns#"
   xmlns:rdf="http://www.w3.org/1999/02/22-rdf-syntax-ns#"
   xmlns:svg="http://www.w3.org/2000/svg"
   xmlns="http://www.w3.org/2000/svg"
   xmlns:sodipodi="http://sodipodi.sourceforge.net/DTD/sodipodi-0.dtd"
   xmlns:inkscape="http://www.inkscape.org/namespaces/inkscape"
   width="762.85712"
   height="760"
   viewBox="0 0 762.85712 760"
   id="svg4161"
   version="1.1"
   inkscape:version="0.92.3 (2405546, 2018-03-11)"
   sodipodi:docname="Lazada (2014) icon 2.svg">
  <defs
     id="defs4163" />
  <sodipodi:namedview
     id="base"
     pagecolor="#ffffff"
     bordercolor="#666666"
     borderopacity="1.0"
     inkscape:pageopacity="0.0"
     inkscape:pageshadow="2"
     inkscape:zoom="0.35"
     inkscape:cx="701.42983"
     inkscape:cy="29.232701"
     inkscape:document-units="px"
     inkscape:current-layer="g1917"
     showgrid="false"
     units="px"
     inkscape:window-width="1366"
     inkscape:window-height="745"
     inkscape:window-x="-8"
     inkscape:window-y="-8"
     inkscape:window-maximized="1"
     fit-margin-top="0"
     fit-margin-left="0"
     fit-margin-right="0"
     fit-margin-bottom="0"
     showguides="true"
     inkscape:guide-bbox="true">
    <sodipodi:guide
       position="762.85718,-1.7285156e-005"
       orientation="0,1"
       id="guide1923"
       inkscape:locked="false" />
  </sodipodi:namedview>
  <metadata
     id="metadata4166">
    <rdf:RDF>
      <cc:Work
         rdf:about="">
        <dc:format>image/svg+xml</dc:format>
        <dc:type
           rdf:resource="http://purl.org/dc/dcmitype/StillImage" />
        <dc:title></dc:title>
      </cc:Work>
    </rdf:RDF>
  </metadata>
  <g
     inkscape:label="Layer 1"
     inkscape:groupmode="layer"
     id="layer1"
     transform="translate(-1994.572,-543.96478)">
    <g
       id="g1917">
      <path
         style="fill:#ff6600;fill-opacity:1;fill-rule:evenodd;stroke-width:1.0018779"
         d="m 2108.8577,543.96478 h 534.2857 c 63.3143,0 114.2857,50.97143 114.2857,114.28572 v 531.4286 c 0,63.3143 -50.9714,114.2857 -114.2857,114.2857 h -534.2857 c -63.3143,0 -114.2857,-50.9714 -114.2857,-114.2857 V 658.2505 c 0,-63.31429 50.9714,-114.28572 114.2857,-114.28572 z"
         id="rect1919" />
      <path
         style="fill:#d45500;stroke:none;stroke-width:1px;stroke-linecap:butt;stroke-linejoin:miter;stroke-opacity:1"
         d="m 2647.4291,799.67907 109.9337,205.30603 v 189.5679 c -0.7623,13.1279 -2.9678,24.4965 -6.6536,34.7925 -13.241,39.828 -52.036,67.1414 -86.4837,72.6851 -10.4389,1.6786 -32.2687,4.062 -46.795,1.9342 H 2280.0006 L 2170.572,1131.3934 Z"
         id="path1921"
         inkscape:connector-curvature="0"
         sodipodi:nodetypes="ccccccccc" />
      <ellipse
         ry="293.52933"
         rx="292.29547"
         cy="927.57831"
         cx="2372.5818"
         id="path1889"
         style="fill:#ff6600;fill-rule:evenodd;stroke-width:1.14227426" />
      <path
         inkscape:connector-curvature="0"
         id="ellipse1902"
         d="m 2373.2305,619.16602 c -166.2875,0 -301.3223,135.12253 -301.3223,301.50195 0,166.37943 135.0348,301.50393 301.3223,301.50393 166.2874,0 301.3242,-135.1245 301.3242,-301.50393 0,-166.37942 -135.0368,-301.50195 -301.3242,-301.50195 z m 0,22.36914 c 154.1903,0 278.9531,124.83553 278.9531,279.13281 0,154.29733 -124.7628,279.13283 -278.9531,279.13283 -154.1903,0 -278.9532,-124.8355 -278.9532,-279.13283 0,-154.29728 124.7629,-279.13281 278.9532,-279.13281 z"
         style="color:#000000;font-style:normal;font-variant:normal;font-weight:normal;font-stretch:normal;font-size:medium;line-height:normal;font-family:sans-serif;font-variant-ligatures:normal;font-variant-position:normal;font-variant-caps:normal;font-variant-numeric:normal;font-variant-alternates:normal;font-feature-settings:normal;text-indent:0;text-align:start;text-decoration:none;text-decoration-line:none;text-decoration-style:solid;text-decoration-color:#000000;letter-spacing:normal;word-spacing:normal;text-transform:none;writing-mode:lr-tb;direction:ltr;text-orientation:mixed;dominant-baseline:auto;baseline-shift:baseline;text-anchor:start;white-space:normal;shape-padding:0;clip-rule:nonzero;display:inline;overflow:visible;visibility:visible;opacity:1;isolation:auto;mix-blend-mode:normal;color-interpolation:sRGB;color-interpolation-filters:linearRGB;solid-color:#000000;solid-opacity:1;vector-effect:none;fill:#ffffff;fill-opacity:1;fill-rule:evenodd;stroke:none;stroke-width:22.36999321;stroke-linecap:butt;stroke-linejoin:miter;stroke-miterlimit:4;stroke-dasharray:none;stroke-dashoffset:0;stroke-opacity:1;color-rendering:auto;image-rendering:auto;shape-rendering:auto;text-rendering:auto;enable-background:accumulate" />
      <path
         id="path4728"
         d="m 2173.0996,810.5563 h 17.1624 v 203.1899 h 92.5843 l -8.1008,17.1623 c -33.8807,0 -67.7639,0 -101.6459,0 z"
         inkscape:connector-curvature="0"
         style="clip-rule:evenodd;fill:#ffffff;fill-opacity:1;fill-rule:evenodd;stroke-width:1.08168852" />
      <path
         inkscape:connector-curvature="0"
         d="m 2344.8666,939.23888 49.4402,-111.2847 45.1351,101.59305 c -9.5757,-1.58292 -19.8237,-2.44134 -30.4586,-2.44134 -24.6278,0 -47.1904,4.60947 -64.1167,12.13299 z m 58.181,-130.95326 h -17.4756 l -97.6696,219.84278 h 17.4755 l 25.4178,-57.21385 c 3.0247,-5.65001 10.0321,-10.76033 19.4205,-15.2131 14.8731,-7.05614 35.6412,-11.42188 58.7699,-11.42188 20.466,0 49.227,3.92111 67.7742,16.50005 l 10.8439,-13.4253 c -3.6371,-2.57257 -7.7414,-4.94425 -12.2504,-7.08158 -4.982,-2.36366 -10.4982,-4.4635 -16.4491,-6.25534 z"
         style="clip-rule:evenodd;fill:#ffffff;fill-opacity:1;fill-rule:evenodd;stroke-width:1.09024811"
         id="path1884" />
      <polygon
         transform="matrix(1.3519702,0,0,1.3422852,2059.8196,802.26097)"
         id="polygon4736"
         points="276.305,170.342 273.288,163.073 361.106,18.966 278.644,18.966 272.609,6.18 376.91,6.18 376.91,18.966 289.551,157.556 371.762,157.556 365.728,170.342 "
         style="clip-rule:evenodd;fill:#ffffff;fill-opacity:1;fill-rule:evenodd" />
    </g>
  </g>
</svg>
